<svg xmlns="http://www.w3.org/2000/svg" viewBox="0 0 1440 320"><path fillOpacity="1" d="M0 160L20 160C40 160 80 160 120 138.7 160 117 200 75 240 48 280 21 320 11 360 10.7 400 11 440 21 480 53.3 520 85 560 139 600 154.7 640 171 680 149 720 128 760 107 800 85 840 96 880 107 920 149 960 160 1000 171 1040 149 1080 160 1120 171 1160 213 1200 224 1240 235 1280 213 1320 170.7 1360 128 1400 64 1420 32L1440 0 1440 320 1420 320C1400 320 1360 320 1320 320 1280 320 1240 320 1200 320 1160 320 1120 320 1080 320 1040 320 1000 320 960 320 920 320 880 320 840 320 800 320 760 320 720 320 680 320 640 320 600 320 560 320 520 320 480 320 440 320 400 320 360 320 320 320 280 320 240 320 200 320 160 320 120 320 80 320 40 320 20 320L0 320Z" fill="#09f"/></svg>